<svg width="559" height="413" viewBox="0 0 559 413" fill="none" xmlns="http://www.w3.org/2000/svg">
<rect width="559" height="413" fill="black"/>
<path d="M57.5649 65.9248L55.3999 69.6748H59.73L57.5649 65.9248ZM57.5649 309H57.1899V309.375H57.5649V309ZM509.781 309L506.031 306.834V311.165L509.781 309ZM57.1899 68.9134V70.9058H57.9399V68.9134H57.1899ZM57.1899 72.8983V74.8907H57.9399V72.8983H57.1899ZM57.1899 76.8831V78.8755H57.9399V76.8831H57.1899ZM57.1899 80.8679V82.8603H57.9399V80.8679H57.1899ZM57.1899 84.8528V86.8452H57.9399V84.8528H57.1899ZM57.1899 88.8376V90.83H57.9399V88.8376H57.1899ZM57.1899 92.8224V94.8148H57.9399V92.8224H57.1899ZM57.1899 96.8073V98.7997H57.9399V96.8073H57.1899ZM57.1899 100.792V102.785H57.9399V100.792H57.1899ZM57.1899 104.777V106.769H57.9399V104.777H57.1899ZM57.1899 108.762V110.754H57.9399V108.762H57.1899ZM57.1899 112.747V114.739H57.9399V112.747H57.1899ZM57.1899 116.731V118.724H57.9399V116.731H57.1899ZM57.1899 120.716V122.709H57.9399V120.716H57.1899ZM57.1899 124.701V126.693H57.9399V124.701H57.1899ZM57.1899 128.686V130.678H57.9399V128.686H57.1899ZM57.1899 132.671V134.663H57.9399V132.671H57.1899ZM57.1899 136.656V138.648H57.9399V136.656H57.1899ZM57.1899 140.64V142.633H57.9399V140.64H57.1899ZM57.1899 144.625V146.618H57.9399V144.625H57.1899ZM57.1899 148.61V150.602H57.9399V148.61H57.1899ZM57.1899 152.595V154.587H57.9399V152.595H57.1899ZM57.1899 156.58V158.572H57.9399V156.58H57.1899ZM57.1899 160.565V162.557H57.9399V160.565H57.1899ZM57.1899 164.549V166.542H57.9399V164.549H57.1899ZM57.1899 168.534V170.527H57.9399V168.534H57.1899ZM57.1899 172.519V174.511H57.9399V172.519H57.1899ZM57.1899 176.504V178.496H57.9399V176.504H57.1899ZM57.1899 180.489V182.481H57.9399V180.489H57.1899ZM57.1899 184.474V186.466H57.9399V184.474H57.1899ZM57.1899 188.458V190.451H57.9399V188.458H57.1899ZM57.1899 192.443V194.436H57.9399V192.443H57.1899ZM57.1899 196.428V198.42H57.9399V196.428H57.1899ZM57.1899 200.413V202.405H57.9399V200.413H57.1899ZM57.1899 204.398V206.39H57.9399V204.398H57.1899ZM57.1899 208.383V210.375H57.9399V208.383H57.1899ZM57.1899 212.367V214.36H57.9399V212.367H57.1899ZM57.1899 216.352V218.345H57.9399V216.352H57.1899ZM57.1899 220.337V222.329H57.9399V220.337H57.1899ZM57.1899 224.322V226.314H57.9399V224.322H57.1899ZM57.1899 228.307V230.299H57.9399V228.307H57.1899ZM57.1899 232.292V234.284H57.9399V232.292H57.1899ZM57.1899 236.276V238.269H57.9399V236.276H57.1899ZM57.1899 240.261V242.254H57.9399V240.261H57.1899ZM57.1899 244.246V246.238H57.9399V244.246H57.1899ZM57.1899 248.231V250.223H57.9399V248.231H57.1899ZM57.1899 252.216V254.208H57.9399V252.216H57.1899ZM57.1899 256.201V258.193H57.9399V256.201H57.1899ZM57.1899 260.185V262.178H57.9399V260.185H57.1899ZM57.1899 264.17V266.163H57.9399V264.17H57.1899ZM57.1899 268.155V270.147H57.9399V268.155H57.1899ZM57.1899 272.14V274.132H57.9399V272.14H57.1899ZM57.1899 276.125V278.117H57.9399V276.125H57.1899ZM57.1899 280.11V282.102H57.9399V280.11H57.1899ZM57.1899 284.094V286.087H57.9399V284.094H57.1899ZM57.1899 288.079V290.072H57.9399V288.079H57.1899ZM57.1899 292.064V294.056H57.9399V292.064H57.1899ZM57.1899 296.049V298.041H57.9399V296.049H57.1899ZM57.1899 300.034V302.026H57.9399V300.034H57.1899ZM57.1899 304.019V306.011H57.9399V304.019H57.1899ZM57.1899 308.003V309H57.9399V308.003H57.1899ZM57.5649 309.375H58.5654V308.625H57.5649V309.375ZM60.5664 309.375H62.5673V308.625H60.5664V309.375ZM64.5683 309.375H66.5692V308.625H64.5683V309.375ZM68.5702 309.375H70.5711V308.625H68.5702V309.375ZM72.5721 309.375H74.5731V308.625H72.5721V309.375ZM76.574 309.375H78.575V308.625H76.574V309.375ZM80.5759 309.375H82.5769V308.625H80.5759V309.375ZM84.5778 309.375H86.5788V308.625H84.5778V309.375ZM88.5797 309.375H90.5807V308.625H88.5797V309.375ZM92.5817 309.375H94.5826V308.625H92.5817V309.375ZM96.5836 309.375H98.5845V308.625H96.5836V309.375ZM100.585 309.375H102.586V308.625H100.585V309.375ZM104.587 309.375H106.588V308.625H104.587V309.375ZM108.589 309.375H110.59V308.625H108.589V309.375ZM112.591 309.375H114.592V308.625H112.591V309.375ZM116.593 309.375H118.594V308.625H116.593V309.375ZM120.595 309.375H122.596V308.625H120.595V309.375ZM124.597 309.375H126.598V308.625H124.597V309.375ZM128.599 309.375H130.6V308.625H128.599V309.375ZM132.601 309.375H134.602V308.625H132.601V309.375ZM136.603 309.375H138.604V308.625H136.603V309.375ZM140.605 309.375H142.606V308.625H140.605V309.375ZM144.606 309.375H146.607V308.625H144.606V309.375ZM148.608 309.375H150.609V308.625H148.608V309.375ZM152.61 309.375H154.611V308.625H152.61V309.375ZM156.612 309.375H158.613V308.625H156.612V309.375ZM160.614 309.375H162.615V308.625H160.614V309.375ZM164.616 309.375H166.617V308.625H164.616V309.375ZM168.618 309.375H170.619V308.625H168.618V309.375ZM172.62 309.375H174.621V308.625H172.62V309.375ZM176.622 309.375H178.623V308.625H176.622V309.375ZM180.624 309.375H182.625V308.625H180.624V309.375ZM184.626 309.375H186.626V308.625H184.626V309.375ZM188.627 309.375H190.628V308.625H188.627V309.375ZM192.629 309.375H194.63V308.625H192.629V309.375ZM196.631 309.375H198.632V308.625H196.631V309.375ZM200.633 309.375H202.634V308.625H200.633V309.375ZM204.635 309.375H206.636V308.625H204.635V309.375ZM208.637 309.375H210.638V308.625H208.637V309.375ZM212.639 309.375H214.64V308.625H212.639V309.375ZM216.641 309.375H218.642V308.625H216.641V309.375ZM220.643 309.375H222.644V308.625H220.643V309.375ZM224.645 309.375H226.646V308.625H224.645V309.375ZM228.647 309.375H230.648V308.625H228.647V309.375ZM232.649 309.375H234.65V308.625H232.649V309.375ZM236.651 309.375H238.651V308.625H236.651V309.375ZM240.652 309.375H242.653V308.625H240.652V309.375ZM244.654 309.375H246.655V308.625H244.654V309.375ZM248.656 309.375H250.657V308.625H248.656V309.375ZM252.658 309.375H254.659V308.625H252.658V309.375ZM256.66 309.375H258.661V308.625H256.66V309.375ZM260.662 309.375H262.663V308.625H260.662V309.375ZM264.664 309.375H266.665V308.625H264.664V309.375ZM268.666 309.375H270.667V308.625H268.666V309.375ZM272.668 309.375H274.669V308.625H272.668V309.375ZM276.67 309.375H278.671V308.625H276.67V309.375ZM280.672 309.375H282.673V308.625H280.672V309.375ZM284.674 309.375H286.675V308.625H284.674V309.375ZM288.676 309.375H290.676V308.625H288.676V309.375ZM292.677 309.375H294.678V308.625H292.677V309.375ZM296.679 309.375H298.68V308.625H296.679V309.375ZM300.681 309.375H302.682V308.625H300.681V309.375ZM304.683 309.375H306.684V308.625H304.683V309.375ZM308.685 309.375H310.686V308.625H308.685V309.375ZM312.687 309.375H314.688V308.625H312.687V309.375ZM316.689 309.375H318.69V308.625H316.689V309.375ZM320.691 309.375H322.692V308.625H320.691V309.375ZM324.693 309.375H326.694V308.625H324.693V309.375ZM328.695 309.375H330.696V308.625H328.695V309.375ZM332.696 309.375H334.697V308.625H332.696V309.375ZM336.698 309.375H338.699V308.625H336.698V309.375ZM340.7 309.375H342.701V308.625H340.7V309.375ZM344.702 309.375H346.703V308.625H344.702V309.375ZM348.704 309.375H350.705V308.625H348.704V309.375ZM352.706 309.375H354.707V308.625H352.706V309.375ZM356.708 309.375H358.709V308.625H356.708V309.375ZM360.71 309.375H362.711V308.625H360.71V309.375ZM364.712 309.375H366.713V308.625H364.712V309.375ZM368.714 309.375H370.714V308.625H368.714V309.375ZM372.715 309.375H374.716V308.625H372.715V309.375ZM376.717 309.375H378.718V308.625H376.717V309.375ZM380.719 309.375H382.72V308.625H380.719V309.375ZM384.721 309.375H386.722V308.625H384.721V309.375ZM388.723 309.375H390.724V308.625H388.723V309.375ZM392.725 309.375H394.726V308.625H392.725V309.375ZM396.727 309.375H398.728V308.625H396.727V309.375ZM400.729 309.375H402.73V308.625H400.729V309.375ZM404.731 309.375H406.732V308.625H404.731V309.375ZM408.732 309.375H410.733V308.625H408.732V309.375ZM412.734 309.375H414.735V308.625H412.734V309.375ZM416.736 309.375H418.737V308.625H416.736V309.375ZM420.738 309.375H422.739V308.625H420.738V309.375ZM424.74 309.375H426.741V308.625H424.74V309.375ZM428.742 309.375H430.743V308.625H428.742V309.375ZM432.744 309.375H434.745V308.625H432.744V309.375ZM436.746 309.375H438.747V308.625H436.746V309.375ZM440.748 309.375H442.749V308.625H440.748V309.375ZM444.749 309.375H446.75V308.625H444.749V309.375ZM448.751 309.375H450.752V308.625H448.751V309.375ZM452.753 309.375H454.754V308.625H452.753V309.375ZM456.755 309.375H458.756V308.625H456.755V309.375ZM460.757 309.375H462.758V308.625H460.757V309.375ZM464.759 309.375H466.76V308.625H464.759V309.375ZM468.761 309.375H470.762V308.625H468.761V309.375ZM472.763 309.375H474.764V308.625H472.763V309.375ZM476.765 309.375H478.766V308.625H476.765V309.375ZM480.767 309.375H482.767V308.625H480.767V309.375ZM484.768 309.375H486.769V308.625H484.768V309.375ZM488.77 309.375H490.771V308.625H488.77V309.375ZM492.772 309.375H494.773V308.625H492.772V309.375ZM496.774 309.375H498.775V308.625H496.774V309.375ZM500.776 309.375H502.777V308.625H500.776V309.375ZM504.778 309.375H506.779V308.625H504.778V309.375Z" fill="#F2F2F2" fill-opacity="0.5"/>
<path d="M69.2896 279.891H81.0754C81.0795 279.891 81.0835 279.892 81.0875 279.893L97.462 283.987C97.4781 283.991 97.495 283.986 97.5074 283.975L102.082 279.909C102.094 279.898 102.111 279.894 102.127 279.898L118.488 283.988C118.501 283.991 118.514 283.989 118.526 283.982L133.876 274.772C133.884 274.767 133.893 274.765 133.902 274.765H155.393C155.41 274.765 155.427 274.755 155.436 274.74L160.015 267.108C160.027 267.088 160.051 267.079 160.073 267.085L175.379 271.677C175.401 271.684 175.424 271.675 175.436 271.655L180.019 264.016C180.026 264.005 180.037 263.996 180.05 263.993L192.317 260.926C192.328 260.924 192.338 260.917 192.345 260.908L198.472 252.739C198.481 252.726 198.496 252.719 198.512 252.719H203.593C203.606 252.719 203.619 252.714 203.628 252.704L222.568 233.252C222.578 233.242 222.591 233.237 222.604 233.237H237.946C237.957 233.237 237.968 233.241 237.977 233.248L262.543 252.696C262.56 252.71 262.585 252.71 262.603 252.697L273.326 245.038C273.334 245.032 273.344 245.029 273.355 245.029H278.451C278.461 245.029 278.47 245.026 278.478 245.021L301.53 230.165C301.534 230.162 301.538 230.159 301.542 230.155L309.705 219.951C309.723 219.928 309.758 219.926 309.779 219.947L312.793 222.961C312.807 222.974 312.827 222.979 312.846 222.972L321.004 219.913C321.013 219.909 321.024 219.909 321.034 219.911L332.781 222.976C332.799 222.98 332.818 222.975 332.831 222.961L355.866 197.366C355.876 197.355 355.889 197.349 355.904 197.349H365.075C365.096 197.349 365.115 197.336 365.122 197.317L370.737 182.513C370.744 182.494 370.763 182.481 370.784 182.481H388.677C388.687 182.481 388.698 182.478 388.706 182.472L416.891 161.974L437.381 144.045C437.392 144.035 437.398 144.021 437.398 144.007V130.237C437.398 130.21 437.421 130.187 437.448 130.187H449.163C449.18 130.187 449.196 130.178 449.205 130.164L468.657 99.4493C468.667 99.4349 468.683 99.4261 468.7 99.4261H473.253C473.273 99.4261 473.291 99.4138 473.299 99.3949L479.939 83.0513C479.946 83.0324 479.965 83.0201 479.985 83.0201H487.606C487.627 83.0201 487.646 83.0065 487.653 82.9863L494.783 62.1059C494.797 62.065 494.853 62.0599 494.874 62.0976L506.611 83.0201" stroke="#4375FB" stroke-width="2.5"/>
<path d="M74.9292 282.968H94.9135C94.9206 282.968 94.9277 282.969 94.9341 282.972L110.808 290.141C110.814 290.144 110.821 290.145 110.828 290.145H124.139C124.144 290.145 124.15 290.144 124.156 290.142L153.871 279.383C153.879 279.38 153.888 279.38 153.896 279.381L175.412 282.967C175.415 282.967 175.417 282.968 175.42 282.968H183.613C183.617 282.968 183.621 282.967 183.625 282.966L217.44 274.769C217.45 274.766 217.462 274.767 217.472 274.771L252.304 290.139C252.313 290.143 252.324 290.144 252.335 290.142L284.099 282.969C284.103 282.968 284.107 282.967 284.111 282.965L300.493 274.774C300.505 274.768 300.518 274.767 300.53 274.77L315.877 279.374C315.887 279.377 315.897 279.377 315.906 279.374L351.78 268.612L365.103 266.05C365.107 266.049 365.112 266.048 365.116 266.046L378.941 258.877C378.948 258.873 378.956 258.871 378.964 258.871H399.454C399.458 258.871 399.461 258.871 399.465 258.87L419.454 254.257L433.289 249.646C433.294 249.644 433.3 249.643 433.305 249.643H441.994C442.006 249.643 442.017 249.639 442.027 249.631L455.841 237.863C455.85 237.856 455.862 237.851 455.873 237.851H467.127C467.132 237.851 467.136 237.851 467.141 237.849L495.838 229.65C495.842 229.649 495.847 229.648 495.852 229.648H505.586" stroke="#464EC7" stroke-opacity="0.5" stroke-width="2.5"/>
<path d="M32.07 110.313V109.143H33.25V105.613H32.07V104.503H32.53C33.3 104.503 33.52 104.323 33.52 103.953V103.873H34.86V109.143H36.05V110.313H32.07ZM39.4417 110.463C37.7917 110.463 36.8317 109.203 36.8317 107.093C36.8317 104.953 37.8017 103.713 39.4417 103.713C41.0817 103.713 42.0517 104.973 42.0517 107.093C42.0517 109.233 41.0717 110.463 39.4417 110.463ZM39.4417 109.193C40.1117 109.193 40.4817 108.453 40.4817 107.093C40.4817 105.733 40.1117 104.983 39.4417 104.983C38.7617 104.983 38.3917 105.723 38.3917 107.093C38.3917 108.433 38.7717 109.193 39.4417 109.193ZM46.4734 110.303L44.8734 108.183L44.6034 107.793L44.3334 108.183L42.7334 110.303H42.3034L44.3834 107.553L42.4934 105.043H42.9634L44.3734 106.933L44.6434 107.313L44.9134 106.933L46.3334 105.043H46.7634L44.8534 107.553L46.9434 110.303H46.4734Z" fill="#F2F2F2" fill-opacity="0.5"/>
<path d="M53.896 46V39.2H56.316C57.906 39.2 58.886 40.03 58.886 41.39C58.886 42.78 57.886 43.59 56.336 43.59H55.016V46H53.896ZM56.306 40.1H55.016V42.69H56.276C57.216 42.69 57.736 42.19 57.736 41.4C57.736 40.61 57.206 40.1 56.306 40.1ZM59.9195 46V40.67H60.9895V41.46C61.3395 40.82 61.8895 40.53 62.5095 40.53C62.7195 40.53 62.9195 40.58 63.0195 40.67V41.61C62.8595 41.56 62.6695 41.54 62.4495 41.54C61.4295 41.54 60.9895 42.16 60.9895 43.09V46H59.9195ZM63.7477 40.01V38.8H64.8177V40.01H63.7477ZM63.7477 46V40.67H64.8177V46H63.7477ZM67.4609 46L65.5009 40.67H66.6509L68.0209 44.63L68.1509 45.14L68.2809 44.63L69.6409 40.67H70.7309L68.7709 46H67.4609ZM72.4041 42.41H71.3341C71.5041 41.23 72.3141 40.53 73.6441 40.53C75.0941 40.53 75.8141 41.38 75.8141 42.62V44.7C75.8141 45.34 75.8741 45.71 75.9941 46H74.8741C74.7941 45.8 74.7641 45.52 74.7541 45.22C74.3041 45.85 73.6141 46.13 72.9741 46.13C71.8941 46.13 71.1541 45.62 71.1541 44.6C71.1541 43.87 71.5541 43.33 72.3541 43.06C73.0641 42.82 73.7841 42.76 74.7441 42.75V42.63C74.7441 41.85 74.3841 41.43 73.5641 41.43C72.8741 41.43 72.5041 41.81 72.4041 42.41ZM72.2341 44.56C72.2341 45.01 72.6041 45.29 73.1741 45.29C74.0641 45.29 74.7441 44.58 74.7441 43.72V43.48C72.6941 43.5 72.2341 43.95 72.2341 44.56ZM77.2959 44.41V41.5H76.5759V40.67H77.2959V39.44H78.3659V40.67H79.5159V41.5H78.3659V44.35C78.3659 44.96 78.5359 45.25 79.2859 45.25H79.4959V46.03C79.3759 46.09 79.1259 46.13 78.8259 46.13C77.7859 46.13 77.2959 45.56 77.2959 44.41ZM85.0499 44.26C84.7599 45.5 83.8399 46.13 82.5899 46.13C81.0199 46.13 80.0599 45.08 80.0599 43.34C80.0599 41.53 81.0199 40.53 82.5399 40.53C84.0799 40.53 85.0099 41.57 85.0099 43.28V43.54H81.1499C81.2099 44.63 81.7199 45.24 82.5899 45.24C83.2699 45.24 83.7499 44.92 83.9299 44.26H85.0499ZM82.5399 41.42C81.7699 41.42 81.3099 41.91 81.1799 42.81H83.8999C83.7699 41.91 83.2999 41.42 82.5399 41.42ZM88.1245 46V39.2H92.8145V40.1H89.2445V42.04H92.4345V42.93H89.2445V45.1H92.8145V46H88.1245ZM95.8844 46.13C94.4744 46.13 93.6244 45.08 93.6244 43.34C93.6244 41.53 94.4944 40.53 95.8844 40.53C96.4944 40.53 96.9944 40.78 97.3344 41.27V40.67H98.4044V48.2H97.3344V45.35C96.9944 45.85 96.4944 46.13 95.8844 46.13ZM96.0244 45.23C96.8744 45.23 97.3344 44.57 97.3344 43.34C97.3344 42.12 96.8544 41.43 96.0244 41.43C95.1744 41.43 94.7144 42.11 94.7144 43.34C94.7144 44.55 95.1944 45.23 96.0244 45.23ZM103.065 43.79V40.67H104.125V46H103.065V45.28C102.715 45.85 102.155 46.13 101.475 46.13C100.385 46.13 99.7047 45.49 99.7047 44.23V40.67H100.775V44.01C100.775 44.78 101.095 45.24 101.805 45.24C102.585 45.24 103.065 44.53 103.065 43.79ZM105.427 40.01V38.8H106.497V40.01H105.427ZM105.427 46V40.67H106.497V46H105.427ZM107.931 44.41V41.5H107.211V40.67H107.931V39.44H109.001V40.67H110.151V41.5H109.001V44.35C109.001 44.96 109.171 45.25 109.921 45.25H110.131V46.03C110.011 46.09 109.761 46.13 109.461 46.13C108.421 46.13 107.931 45.56 107.931 44.41ZM111.335 48.33C111.105 48.33 110.865 48.27 110.745 48.23V47.41H111.035C111.645 47.41 111.875 47.29 112.335 46.18L112.495 45.81L110.355 40.67H111.505L112.825 43.99L113.055 44.72L113.285 43.99L114.565 40.67H115.655L113.235 46.62C112.695 47.95 112.285 48.33 111.335 48.33ZM118.398 46V39.2H119.518V46H118.398ZM120.896 46V40.67H121.966V41.38C122.326 40.81 122.886 40.53 123.576 40.53C124.686 40.53 125.376 41.18 125.376 42.44V46H124.316V42.66C124.316 41.89 123.976 41.42 123.246 41.42C122.446 41.42 121.966 42.13 121.966 42.87V46H120.896ZM128.677 46.13C127.267 46.13 126.417 45.08 126.417 43.34C126.417 41.53 127.287 40.53 128.677 40.53C129.287 40.53 129.787 40.78 130.127 41.27V38.8H131.197V46H130.127V45.35C129.787 45.85 129.287 46.13 128.677 46.13ZM128.817 45.23C129.667 45.23 130.127 44.57 130.127 43.34C130.127 42.12 129.647 41.43 128.817 41.43C127.967 41.43 127.507 42.11 127.507 43.34C127.507 44.55 127.987 45.23 128.817 45.23ZM137.218 44.26C136.928 45.5 136.008 46.13 134.758 46.13C133.188 46.13 132.228 45.08 132.228 43.34C132.228 41.53 133.188 40.53 134.708 40.53C136.248 40.53 137.178 41.57 137.178 43.28V43.54H133.318C133.378 44.63 133.888 45.24 134.758 45.24C135.438 45.24 135.918 44.92 136.098 44.26H137.218ZM134.708 41.42C133.938 41.42 133.478 41.91 133.348 42.81H136.068C135.938 41.91 135.468 41.42 134.708 41.42ZM141.424 46L140.284 44.36L140.024 43.91L139.764 44.36L138.654 46H137.474L139.444 43.23L137.624 40.67H138.914L139.904 42.11L140.164 42.57L140.424 42.11L141.394 40.67H142.564L140.744 43.23L142.714 46H141.424ZM146.729 46L144.769 40.67H145.919L147.289 44.63L147.419 45.14L147.549 44.63L148.909 40.67H149.999L148.039 46H146.729ZM151.521 42.07C151.521 43.43 154.931 42.29 154.931 44.46C154.931 45.47 154.021 46.13 152.731 46.13C151.441 46.13 150.531 45.53 150.331 44.26H151.401C151.511 44.93 152.011 45.3 152.761 45.3C153.481 45.3 153.861 44.98 153.861 44.53C153.861 43.2 150.501 44.32 150.501 42.13C150.501 41.3 151.151 40.53 152.501 40.53C153.691 40.53 154.571 41.08 154.741 42.41H153.671C153.551 41.66 153.131 41.38 152.451 41.38C151.861 41.38 151.521 41.67 151.521 42.07ZM158.859 40.88C158.859 42.67 162.979 41.26 162.979 44.04C162.979 45.38 161.889 46.13 160.399 46.13C158.889 46.13 157.849 45.44 157.569 44.02H158.739C158.929 44.79 159.499 45.21 160.409 45.21C161.339 45.21 161.829 44.8 161.829 44.19C161.829 42.27 157.709 43.7 157.709 40.97C157.709 39.95 158.569 39.07 160.119 39.07C161.459 39.07 162.559 39.71 162.799 41.2H161.609C161.419 40.36 160.889 39.99 160.089 39.99C159.309 39.99 158.859 40.34 158.859 40.88ZM168.312 40.61C168.312 41.6 167.602 41.97 166.842 42.29L168.482 43.88C168.652 43.48 168.752 43 168.752 42.45H169.802C169.802 43.22 169.602 43.97 169.222 44.59L170.692 46H169.282L168.592 45.34C168.032 45.83 167.292 46.13 166.382 46.13C164.842 46.13 163.912 45.26 163.912 44.1C163.912 43.03 164.552 42.51 165.282 42.15C164.802 41.6 164.622 41.2 164.622 40.67C164.622 39.71 165.412 39.07 166.522 39.07C167.702 39.07 168.312 39.81 168.312 40.61ZM165.672 40.67C165.672 41.04 165.852 41.31 166.262 41.72C166.832 41.47 167.282 41.2 167.282 40.68C167.282 40.31 166.992 39.95 166.512 39.95C166.002 39.95 165.672 40.28 165.672 40.67ZM165.002 44.05C165.002 44.73 165.502 45.23 166.462 45.23C167.022 45.23 167.522 45.05 167.912 44.7L166.102 42.99C166.012 42.9 165.922 42.82 165.842 42.74C165.362 43.01 165.002 43.38 165.002 44.05ZM171.562 46V39.2H173.982C175.572 39.2 176.552 40.03 176.552 41.39C176.552 42.78 175.552 43.59 174.002 43.59H172.682V46H171.562ZM173.972 40.1H172.682V42.69H173.942C174.882 42.69 175.402 42.19 175.402 41.4C175.402 40.61 174.872 40.1 173.972 40.1ZM184.288 43.85C184.288 45.17 183.448 46.13 181.868 46.13C180.418 46.13 179.528 45.39 179.348 44.16H180.418C180.528 44.82 180.998 45.23 181.858 45.23C182.758 45.23 183.218 44.72 183.218 43.87C183.218 43.16 182.878 42.46 181.848 42.46C181.168 42.46 180.778 42.76 180.558 43.09L179.598 43L179.798 39.57H183.978V40.41H180.658L180.558 42C180.918 41.74 181.348 41.57 181.938 41.57C183.628 41.57 184.288 42.63 184.288 43.85ZM187.54 46.13C185.93 46.13 185 44.89 185 42.79C185 40.64 185.95 39.44 187.54 39.44C189.14 39.44 190.07 40.68 190.07 42.79C190.07 44.94 189.12 46.13 187.54 46.13ZM187.54 45.22C188.47 45.22 188.98 44.36 188.98 42.79C188.98 41.23 188.46 40.35 187.54 40.35C186.61 40.35 186.09 41.21 186.09 42.79C186.09 44.33 186.61 45.22 187.54 45.22ZM193.302 46.13C191.692 46.13 190.762 44.89 190.762 42.79C190.762 40.64 191.712 39.44 193.302 39.44C194.902 39.44 195.832 40.68 195.832 42.79C195.832 44.94 194.882 46.13 193.302 46.13ZM193.302 45.22C194.232 45.22 194.742 44.36 194.742 42.79C194.742 41.23 194.222 40.35 193.302 40.35C192.372 40.35 191.852 41.21 191.852 42.79C191.852 44.33 192.372 45.22 193.302 45.22ZM198.876 46V39.2H199.996V46H198.876ZM201.375 46V40.67H202.445V41.38C202.805 40.81 203.365 40.53 204.055 40.53C205.165 40.53 205.855 41.18 205.855 42.44V46H204.795V42.66C204.795 41.89 204.455 41.42 203.725 41.42C202.925 41.42 202.445 42.13 202.445 42.87V46H201.375ZM209.156 46.13C207.746 46.13 206.896 45.08 206.896 43.34C206.896 41.53 207.766 40.53 209.156 40.53C209.766 40.53 210.266 40.78 210.606 41.27V38.8H211.676V46H210.606V45.35C210.266 45.85 209.766 46.13 209.156 46.13ZM209.296 45.23C210.146 45.23 210.606 44.57 210.606 43.34C210.606 42.12 210.126 41.43 209.296 41.43C208.446 41.43 207.986 42.11 207.986 43.34C207.986 44.55 208.466 45.23 209.296 45.23ZM217.696 44.26C217.406 45.5 216.486 46.13 215.236 46.13C213.666 46.13 212.706 45.08 212.706 43.34C212.706 41.53 213.666 40.53 215.186 40.53C216.726 40.53 217.656 41.57 217.656 43.28V43.54H213.796C213.856 44.63 214.366 45.24 215.236 45.24C215.916 45.24 216.396 44.92 216.576 44.26H217.696ZM215.186 41.42C214.416 41.42 213.956 41.91 213.826 42.81H216.546C216.416 41.91 215.946 41.42 215.186 41.42ZM221.902 46L220.762 44.36L220.502 43.91L220.242 44.36L219.132 46H217.952L219.922 43.23L218.102 40.67H219.392L220.382 42.11L220.642 42.57L220.902 42.11L221.872 40.67H223.042L221.222 43.23L223.192 46H221.902ZM225.837 43.73V42.82H228.527V43.73H225.837ZM229.802 43.73V42.82H232.492V43.73H229.802ZM235.83 46V39.2H236.95V42.05H240.25V39.2H241.37V46H240.25V42.96H236.95V46H235.83ZM242.752 40.01V38.8H243.822V40.01H242.752ZM242.752 46V40.67H243.822V46H242.752ZM245.965 42.07C245.965 43.43 249.375 42.29 249.375 44.46C249.375 45.47 248.465 46.13 247.175 46.13C245.885 46.13 244.975 45.53 244.775 44.26H245.845C245.955 44.93 246.455 45.3 247.205 45.3C247.925 45.3 248.305 44.98 248.305 44.53C248.305 43.2 244.945 44.32 244.945 42.13C244.945 41.3 245.595 40.53 246.945 40.53C248.135 40.53 249.015 41.08 249.185 42.41H248.115C247.995 41.66 247.575 41.38 246.895 41.38C246.305 41.38 245.965 41.67 245.965 42.07ZM250.489 44.41V41.5H249.769V40.67H250.489V39.44H251.559V40.67H252.709V41.5H251.559V44.35C251.559 44.96 251.729 45.25 252.479 45.25H252.689V46.03C252.569 46.09 252.319 46.13 252.019 46.13C250.979 46.13 250.489 45.56 250.489 44.41ZM255.743 46.13C254.193 46.13 253.253 45.08 253.253 43.34C253.253 41.53 254.223 40.53 255.743 40.53C257.293 40.53 258.233 41.6 258.233 43.34C258.233 45.14 257.263 46.13 255.743 46.13ZM255.743 45.23C256.653 45.23 257.143 44.57 257.143 43.34C257.143 42.12 256.643 41.43 255.743 41.43C254.843 41.43 254.343 42.1 254.343 43.34C254.343 44.55 254.843 45.23 255.743 45.23ZM259.275 46V40.67H260.345V41.46C260.695 40.82 261.245 40.53 261.865 40.53C262.075 40.53 262.275 40.58 262.375 40.67V41.61C262.215 41.56 262.025 41.54 261.805 41.54C260.785 41.54 260.345 42.16 260.345 43.09V46H259.275ZM263.103 40.01V38.8H264.173V40.01H263.103ZM263.103 46V40.67H264.173V46H263.103ZM269.976 42.53H268.906C268.776 41.77 268.286 41.43 267.666 41.43C266.776 41.43 266.296 42.11 266.296 43.34C266.296 44.55 266.796 45.24 267.696 45.24C268.336 45.24 268.786 44.89 268.946 44.21H270.006C269.776 45.54 268.856 46.13 267.676 46.13C266.136 46.13 265.206 45.07 265.206 43.34C265.206 41.53 266.156 40.53 267.666 40.53C268.856 40.53 269.796 41.2 269.976 42.53ZM272.014 42.41H270.944C271.114 41.23 271.924 40.53 273.254 40.53C274.704 40.53 275.424 41.38 275.424 42.62V44.7C275.424 45.34 275.484 45.71 275.604 46H274.484C274.404 45.8 274.374 45.52 274.364 45.22C273.914 45.85 273.224 46.13 272.584 46.13C271.504 46.13 270.764 45.62 270.764 44.6C270.764 43.87 271.164 43.33 271.964 43.06C272.674 42.82 273.394 42.76 274.354 42.75V42.63C274.354 41.85 273.994 41.43 273.174 41.43C272.484 41.43 272.114 41.81 272.014 42.41ZM271.844 44.56C271.844 45.01 272.214 45.29 272.784 45.29C273.674 45.29 274.354 44.58 274.354 43.72V43.48C272.304 43.5 271.844 43.95 271.844 44.56ZM276.765 46V38.8H277.835V46H276.765ZM281.171 46V39.2H283.591C285.181 39.2 286.161 40.03 286.161 41.39C286.161 42.78 285.161 43.59 283.611 43.59H282.291V46H281.171ZM283.581 40.1H282.291V42.69H283.551C284.491 42.69 285.011 42.19 285.011 41.4C285.011 40.61 284.481 40.1 283.581 40.1ZM291.925 44.26C291.635 45.5 290.715 46.13 289.465 46.13C287.895 46.13 286.935 45.08 286.935 43.34C286.935 41.53 287.895 40.53 289.415 40.53C290.955 40.53 291.885 41.57 291.885 43.28V43.54H288.025C288.085 44.63 288.595 45.24 289.465 45.24C290.145 45.24 290.625 44.92 290.805 44.26H291.925ZM289.415 41.42C288.645 41.42 288.185 41.91 288.055 42.81H290.775C290.645 41.91 290.175 41.42 289.415 41.42ZM292.957 46V40.67H294.027V41.46C294.377 40.82 294.927 40.53 295.547 40.53C295.757 40.53 295.957 40.58 296.057 40.67V41.61C295.897 41.56 295.707 41.54 295.487 41.54C294.467 41.54 294.027 42.16 294.027 43.09V46H292.957ZM296.185 41.5V40.67H296.905V40.39C296.905 39.23 297.395 38.67 298.395 38.67C298.665 38.67 298.875 38.72 298.985 38.77V39.49H298.885C298.145 39.49 297.965 39.79 297.965 40.4V40.67H298.985V41.5H297.965V46H296.905V41.5H296.185ZM301.876 46.13C300.326 46.13 299.386 45.08 299.386 43.34C299.386 41.53 300.356 40.53 301.876 40.53C303.426 40.53 304.366 41.6 304.366 43.34C304.366 45.14 303.396 46.13 301.876 46.13ZM301.876 45.23C302.786 45.23 303.276 44.57 303.276 43.34C303.276 42.12 302.776 41.43 301.876 41.43C300.976 41.43 300.476 42.1 300.476 43.34C300.476 44.55 300.976 45.23 301.876 45.23ZM305.408 46V40.67H306.478V41.46C306.828 40.82 307.378 40.53 307.998 40.53C308.208 40.53 308.408 40.58 308.508 40.67V41.61C308.348 41.56 308.158 41.54 307.938 41.54C306.918 41.54 306.478 42.16 306.478 43.09V46H305.408ZM309.236 46V40.67H310.306V41.35C310.646 40.8 311.176 40.53 311.806 40.53C312.516 40.53 313.046 40.84 313.306 41.45C313.656 40.84 314.236 40.53 314.936 40.53C315.986 40.53 316.666 41.18 316.666 42.44V46H315.596V42.66C315.596 41.89 315.306 41.42 314.646 41.42C313.926 41.42 313.486 42.13 313.486 42.87V46H312.416V42.66C312.416 41.89 312.116 41.42 311.466 41.42C310.746 41.42 310.306 42.13 310.306 42.87V46H309.236ZM318.976 42.41H317.906C318.076 41.23 318.886 40.53 320.216 40.53C321.666 40.53 322.386 41.38 322.386 42.62V44.7C322.386 45.34 322.446 45.71 322.566 46H321.446C321.366 45.8 321.336 45.52 321.326 45.22C320.876 45.85 320.186 46.13 319.546 46.13C318.466 46.13 317.726 45.62 317.726 44.6C317.726 43.87 318.126 43.33 318.926 43.06C319.636 42.82 320.356 42.76 321.316 42.75V42.63C321.316 41.85 320.956 41.43 320.136 41.43C319.446 41.43 319.076 41.81 318.976 42.41ZM318.806 44.56C318.806 45.01 319.176 45.29 319.746 45.29C320.636 45.29 321.316 44.58 321.316 43.72V43.48C319.266 43.5 318.806 43.95 318.806 44.56ZM323.728 46V40.67H324.798V41.38C325.158 40.81 325.718 40.53 326.408 40.53C327.518 40.53 328.208 41.18 328.208 42.44V46H327.148V42.66C327.148 41.89 326.808 41.42 326.078 41.42C325.278 41.42 324.798 42.13 324.798 42.87V46H323.728ZM334.019 42.53H332.949C332.819 41.77 332.329 41.43 331.709 41.43C330.819 41.43 330.339 42.11 330.339 43.34C330.339 44.55 330.839 45.24 331.739 45.24C332.379 45.24 332.829 44.89 332.989 44.21H334.049C333.819 45.54 332.899 46.13 331.719 46.13C330.179 46.13 329.249 45.07 329.249 43.34C329.249 41.53 330.199 40.53 331.709 40.53C332.899 40.53 333.839 41.2 334.019 42.53ZM339.776 44.26C339.486 45.5 338.566 46.13 337.316 46.13C335.746 46.13 334.786 45.08 334.786 43.34C334.786 41.53 335.746 40.53 337.266 40.53C338.806 40.53 339.736 41.57 339.736 43.28V43.54H335.876C335.936 44.63 336.446 45.24 337.316 45.24C337.996 45.24 338.476 44.92 338.656 44.26H339.776ZM337.266 41.42C336.496 41.42 336.036 41.91 335.906 42.81H338.626C338.496 41.91 338.026 41.42 337.266 41.42Z" fill="white"/>
<path d="M83.4038 368.255V361.455H85.8238C87.4138 361.455 88.3938 362.285 88.3938 363.645C88.3938 365.035 87.3938 365.845 85.8438 365.845H84.5238V368.255H83.4038ZM85.8138 362.355H84.5238V364.945H85.7838C86.7238 364.945 87.2438 364.445 87.2438 363.655C87.2438 362.865 86.7138 362.355 85.8138 362.355ZM89.4273 368.255V362.925H90.4973V363.715C90.8473 363.075 91.3973 362.785 92.0173 362.785C92.2273 362.785 92.4273 362.835 92.5273 362.925V363.865C92.3673 363.815 92.1773 363.795 91.9573 363.795C90.9373 363.795 90.4973 364.415 90.4973 365.345V368.255H89.4273ZM93.2555 362.265V361.055H94.3255V362.265H93.2555ZM93.2555 368.255V362.925H94.3255V368.255H93.2555ZM96.9688 368.255L95.0088 362.925H96.1588L97.5288 366.885L97.6588 367.395L97.7888 366.885L99.1488 362.925H100.239L98.2788 368.255H96.9688ZM101.912 364.665H100.842C101.012 363.485 101.822 362.785 103.152 362.785C104.602 362.785 105.322 363.635 105.322 364.875V366.955C105.322 367.595 105.382 367.965 105.502 368.255H104.382C104.302 368.055 104.272 367.775 104.262 367.475C103.812 368.105 103.122 368.385 102.482 368.385C101.402 368.385 100.662 367.875 100.662 366.855C100.662 366.125 101.062 365.585 101.862 365.315C102.572 365.075 103.292 365.015 104.252 365.005V364.885C104.252 364.105 103.892 363.685 103.072 363.685C102.382 363.685 102.012 364.065 101.912 364.665ZM101.742 366.815C101.742 367.265 102.112 367.545 102.682 367.545C103.572 367.545 104.252 366.835 104.252 365.975V365.735C102.202 365.755 101.742 366.205 101.742 366.815ZM106.804 366.665V363.755H106.084V362.925H106.804V361.695H107.874V362.925H109.024V363.755H107.874V366.605C107.874 367.215 108.044 367.505 108.794 367.505H109.004V368.285C108.884 368.345 108.634 368.385 108.334 368.385C107.294 368.385 106.804 367.815 106.804 366.665ZM114.558 366.515C114.268 367.755 113.348 368.385 112.098 368.385C110.528 368.385 109.568 367.335 109.568 365.595C109.568 363.785 110.528 362.785 112.048 362.785C113.588 362.785 114.518 363.825 114.518 365.535V365.795H110.658C110.718 366.885 111.228 367.495 112.098 367.495C112.778 367.495 113.258 367.175 113.438 366.515H114.558ZM112.048 363.675C111.278 363.675 110.818 364.165 110.688 365.065H113.408C113.278 364.165 112.808 363.675 112.048 363.675ZM117.632 368.255V361.455H122.322V362.355H118.752V364.295H121.942V365.185H118.752V367.355H122.322V368.255H117.632ZM125.392 368.385C123.982 368.385 123.132 367.335 123.132 365.595C123.132 363.785 124.002 362.785 125.392 362.785C126.002 362.785 126.502 363.035 126.842 363.525V362.925H127.912V370.455H126.842V367.605C126.502 368.105 126.002 368.385 125.392 368.385ZM125.532 367.485C126.382 367.485 126.842 366.825 126.842 365.595C126.842 364.375 126.362 363.685 125.532 363.685C124.682 363.685 124.222 364.365 124.222 365.595C124.222 366.805 124.702 367.485 125.532 367.485ZM132.573 366.045V362.925H133.633V368.255H132.573V367.535C132.223 368.105 131.663 368.385 130.983 368.385C129.893 368.385 129.213 367.745 129.213 366.485V362.925H130.283V366.265C130.283 367.035 130.603 367.495 131.313 367.495C132.093 367.495 132.573 366.785 132.573 366.045ZM134.935 362.265V361.055H136.005V362.265H134.935ZM134.935 368.255V362.925H136.005V368.255H134.935ZM137.438 366.665V363.755H136.718V362.925H137.438V361.695H138.508V362.925H139.658V363.755H138.508V366.605C138.508 367.215 138.678 367.505 139.428 367.505H139.638V368.285C139.518 368.345 139.268 368.385 138.968 368.385C137.928 368.385 137.438 367.815 137.438 366.665ZM140.843 370.585C140.613 370.585 140.373 370.525 140.253 370.485V369.665H140.543C141.153 369.665 141.383 369.545 141.843 368.435L142.003 368.065L139.863 362.925H141.013L142.333 366.245L142.563 366.975L142.793 366.245L144.073 362.925H145.163L142.743 368.875C142.203 370.205 141.793 370.585 140.843 370.585ZM147.906 368.255V361.455H149.026V368.255H147.906ZM150.404 368.255V362.925H151.474V363.635C151.834 363.065 152.394 362.785 153.084 362.785C154.194 362.785 154.884 363.435 154.884 364.695V368.255H153.824V364.915C153.824 364.145 153.484 363.675 152.754 363.675C151.954 363.675 151.474 364.385 151.474 365.125V368.255H150.404ZM158.185 368.385C156.775 368.385 155.925 367.335 155.925 365.595C155.925 363.785 156.795 362.785 158.185 362.785C158.795 362.785 159.295 363.035 159.635 363.525V361.055H160.705V368.255H159.635V367.605C159.295 368.105 158.795 368.385 158.185 368.385ZM158.325 367.485C159.175 367.485 159.635 366.825 159.635 365.595C159.635 364.375 159.155 363.685 158.325 363.685C157.475 363.685 157.015 364.365 157.015 365.595C157.015 366.805 157.495 367.485 158.325 367.485ZM166.726 366.515C166.436 367.755 165.516 368.385 164.266 368.385C162.696 368.385 161.736 367.335 161.736 365.595C161.736 363.785 162.696 362.785 164.216 362.785C165.756 362.785 166.686 363.825 166.686 365.535V365.795H162.826C162.886 366.885 163.396 367.495 164.266 367.495C164.946 367.495 165.426 367.175 165.606 366.515H166.726ZM164.216 363.675C163.446 363.675 162.986 364.165 162.856 365.065H165.576C165.446 364.165 164.976 363.675 164.216 363.675ZM170.932 368.255L169.792 366.615L169.532 366.165L169.272 366.615L168.162 368.255H166.982L168.952 365.485L167.132 362.925H168.422L169.412 364.365L169.672 364.825L169.932 364.365L170.902 362.925H172.072L170.252 365.485L172.222 368.255H170.932Z" fill="white"/>
<path d="M39.0086 150.423C37.5686 150.423 36.6186 149.703 36.6186 148.543C36.6186 147.783 37.0286 147.243 37.7086 146.943C37.1686 146.663 36.8486 146.173 36.8486 145.523C36.8486 144.453 37.7286 143.753 39.0086 143.753C40.2986 143.753 41.1786 144.413 41.1786 145.523C41.1786 146.163 40.8486 146.663 40.2986 146.953C40.9886 147.253 41.3986 147.823 41.3986 148.533C41.3986 149.723 40.4386 150.423 39.0086 150.423ZM39.0086 144.493C38.2386 144.493 37.7086 144.893 37.7086 145.553C37.7086 146.253 38.2286 146.633 39.0086 146.633C39.7786 146.633 40.3186 146.233 40.3186 145.563C40.3186 144.873 39.7986 144.493 39.0086 144.493ZM39.0086 149.683C39.9186 149.683 40.5186 149.253 40.5186 148.493C40.5186 147.733 39.8986 147.293 39.0086 147.293C38.1086 147.293 37.4986 147.723 37.4986 148.503C37.4986 149.233 38.1086 149.683 39.0086 149.683ZM45.7203 150.303L44.4503 148.533L44.1903 148.123L43.9303 148.533L42.6903 150.303H41.6903L43.7103 147.543L41.8503 144.993H42.9503L44.0503 146.553L44.3203 146.983L44.5803 146.553L45.6603 144.993H46.6603L44.8003 147.543L46.8203 150.303H45.7203Z" fill="#F2F2F2" fill-opacity="0.5"/>
<path d="M41.5435 187.027C41.5435 188.397 40.5435 189.217 39.1835 189.217C39.1735 189.217 39.1735 189.217 39.1635 189.217H39.1535C37.6335 189.207 36.5935 188.187 36.5935 185.887C36.5935 183.737 37.5535 182.547 39.1735 182.547C40.3735 182.547 41.2135 183.237 41.5235 184.477H40.6235C40.3935 183.707 39.8635 183.307 39.1435 183.307C38.0235 183.307 37.4135 184.217 37.4135 185.857C37.7835 185.227 38.4535 184.877 39.2435 184.877C40.6135 184.877 41.5435 185.677 41.5435 187.027ZM39.1635 188.457C40.0535 188.457 40.6435 187.957 40.6435 187.057C40.6435 186.167 40.0335 185.637 39.1635 185.637C38.2635 185.637 37.6735 186.157 37.6735 187.067C37.6735 187.937 38.2735 188.457 39.1635 188.457ZM45.7653 189.097L44.4953 187.327L44.2353 186.917L43.9753 187.327L42.7353 189.097H41.7353L43.7553 186.337L41.8953 183.787H42.9953L44.0953 185.347L44.3653 185.777L44.6253 185.347L45.7053 183.787H46.7053L44.8453 186.337L46.8653 189.097H45.7653Z" fill="#F2F2F2" fill-opacity="0.5"/>
<path d="M40.5486 229.097H39.6486V227.587H36.5186V226.787L39.7386 222.667H40.5486V226.887H41.4886V227.587H40.5486V229.097ZM37.3486 226.887H39.6486V223.857L37.3486 226.887ZM45.7203 229.097L44.4503 227.327L44.1903 226.917L43.9303 227.327L42.6903 229.097H41.6903L43.7103 226.337L41.8503 223.787H42.9503L44.0503 225.347L44.3203 225.777L44.5803 225.347L45.6603 223.787H46.6603L44.8003 226.337L46.8203 229.097H45.7203Z" fill="#F2F2F2" fill-opacity="0.5"/>
<path d="M36.7435 272.23V271.99C36.7435 269.1 40.3035 269.34 40.3035 267.61C40.3035 266.88 39.8735 266.44 39.0735 266.44C38.1935 266.44 37.7635 266.89 37.6435 267.63H36.7335C36.9035 266.42 37.7135 265.68 39.0835 265.68C40.4835 265.68 41.2035 266.51 41.2035 267.6C41.2035 269.68 38.0235 269.66 37.6535 271.53H41.2735V272.23H36.7435ZM45.7653 272.23L44.4953 270.46L44.2353 270.05L43.9753 270.46L42.7353 272.23H41.7353L43.7553 269.47L41.8953 266.92H42.9953L44.0953 268.48L44.3653 268.91L44.6253 268.48L45.7053 266.92H46.7053L44.8453 269.47L46.8653 272.23H45.7653Z" fill="#F2F2F2" fill-opacity="0.5"/>
<path d="M66.5326 324.999V324.759C66.5326 321.869 70.0926 322.109 70.0926 320.379C70.0926 319.649 69.6626 319.209 68.8626 319.209C67.9826 319.209 67.5526 319.659 67.4326 320.399H66.5226C66.6926 319.189 67.5026 318.449 68.8726 318.449C70.2726 318.449 70.9926 319.279 70.9926 320.369C70.9926 322.449 67.8126 322.429 67.4426 324.299H71.0626V324.999H66.5326ZM74.3543 325.119C72.7643 325.119 71.8443 323.879 71.8443 321.789C71.8443 319.639 72.7843 318.449 74.3543 318.449C75.9343 318.449 76.8543 319.689 76.8543 321.789C76.8543 323.939 75.9143 325.119 74.3543 325.119ZM74.3543 324.359C75.3843 324.359 75.9543 323.439 75.9543 321.789C75.9543 320.149 75.3743 319.209 74.3543 319.209C73.3143 319.209 72.7443 320.119 72.7443 321.789C72.7443 323.409 73.3243 324.359 74.3543 324.359ZM79.916 325.119C78.326 325.119 77.406 323.879 77.406 321.789C77.406 319.639 78.346 318.449 79.916 318.449C81.496 318.449 82.416 319.689 82.416 321.789C82.416 323.939 81.476 325.119 79.916 325.119ZM79.916 324.359C80.946 324.359 81.516 323.439 81.516 321.789C81.516 320.149 80.936 319.209 79.916 319.209C78.876 319.209 78.306 320.119 78.306 321.789C78.306 323.409 78.886 324.359 79.916 324.359ZM83.9778 324.999V324.299H85.2078V319.799H83.9778V319.099H84.7078C85.2278 319.099 85.3578 318.979 85.3578 318.689V318.569H86.1278V324.299H87.3578V324.999H83.9778Z" fill="#F2F2F2" fill-opacity="0.5"/>
<path d="M137.636 319.489V320.539H136.556V319.849C136.556 319.139 136.716 318.719 136.986 318.199H137.496C137.316 318.679 137.196 319.009 137.196 319.489H137.636ZM140.911 325.119C139.321 325.119 138.401 323.879 138.401 321.789C138.401 319.639 139.341 318.449 140.911 318.449C142.491 318.449 143.411 319.689 143.411 321.789C143.411 323.939 142.471 325.119 140.911 325.119ZM140.911 324.359C141.941 324.359 142.511 323.439 142.511 321.789C142.511 320.149 141.931 319.209 140.911 319.209C139.871 319.209 139.301 320.119 139.301 321.789C139.301 323.409 139.881 324.359 140.911 324.359ZM148.063 324.999H147.163V323.489H144.033V322.689L147.253 318.569H148.063V322.789H149.003V323.489H148.063V324.999ZM144.863 322.789H147.163V319.759L144.863 322.789Z" fill="#F2F2F2" fill-opacity="0.5"/>
<path d="M198.679 319.489V320.539H197.599V319.849C197.599 319.139 197.759 318.719 198.029 318.199H198.539C198.359 318.679 198.239 319.009 198.239 319.489H198.679ZM201.954 325.119C200.364 325.119 199.444 323.879 199.444 321.789C199.444 319.639 200.384 318.449 201.954 318.449C203.534 318.449 204.454 319.689 204.454 321.789C204.454 323.939 203.514 325.119 201.954 325.119ZM201.954 324.359C202.984 324.359 203.554 323.439 203.554 321.789C203.554 320.149 202.974 319.209 201.954 319.209C200.914 319.209 200.344 320.119 200.344 321.789C200.344 323.409 200.924 324.359 201.954 324.359ZM207.316 324.999H206.396C206.736 322.869 207.566 320.959 208.796 319.269H205.206V318.569H209.746V319.129C208.396 320.979 207.586 322.949 207.316 324.999Z" fill="#F2F2F2" fill-opacity="0.5"/>
<path d="M259.722 319.489V320.539H258.642V319.849C258.642 319.139 258.802 318.719 259.072 318.199H259.582C259.402 318.679 259.282 319.009 259.282 319.489H259.722ZM261.497 324.999V324.299H262.727V319.799H261.497V319.099H262.227C262.747 319.099 262.877 318.979 262.877 318.689V318.569H263.647V324.299H264.877V324.999H261.497ZM268.559 325.119C266.969 325.119 266.049 323.879 266.049 321.789C266.049 319.639 266.989 318.449 268.559 318.449C270.139 318.449 271.059 319.689 271.059 321.789C271.059 323.939 270.119 325.119 268.559 325.119ZM268.559 324.359C269.589 324.359 270.159 323.439 270.159 321.789C270.159 320.149 269.579 319.209 268.559 319.209C267.519 319.209 266.949 320.119 266.949 321.789C266.949 323.409 267.529 324.359 268.559 324.359Z" fill="#F2F2F2" fill-opacity="0.5"/>
<path d="M320.764 319.489V320.539H319.684V319.849C319.684 319.139 319.844 318.719 320.114 318.199H320.624C320.444 318.679 320.324 319.009 320.324 319.489H320.764ZM322.54 324.999V324.299H323.77V319.799H322.54V319.099H323.27C323.79 319.099 323.92 318.979 323.92 318.689V318.569H324.69V324.299H325.92V324.999H322.54ZM332.042 323.209C332.042 324.299 331.222 325.119 329.632 325.119C328.202 325.119 327.312 324.379 327.132 323.149H328.032C328.152 323.889 328.652 324.359 329.622 324.359C330.622 324.359 331.142 323.919 331.142 323.169C331.142 322.619 330.852 322.029 329.342 322.029H329.082V321.329H329.292C330.722 321.329 330.952 320.739 330.952 320.289C330.952 319.609 330.502 319.209 329.642 319.209C328.742 319.209 328.282 319.659 328.162 320.399H327.272C327.442 319.189 328.272 318.449 329.652 318.449C331.102 318.449 331.852 319.229 331.852 320.279C331.852 320.879 331.592 321.349 330.922 321.629C331.752 321.939 332.042 322.519 332.042 323.209Z" fill="#F2F2F2" fill-opacity="0.5"/>
<path d="M381.807 319.489V320.539H380.727V319.849C380.727 319.139 380.887 318.719 381.157 318.199H381.667C381.487 318.679 381.367 319.009 381.367 319.489H381.807ZM383.583 324.999V324.299H384.813V319.799H383.583V319.099H384.313C384.833 319.099 384.963 318.979 384.963 318.689V318.569H385.733V324.299H386.963V324.999H383.583ZM393.185 322.929C393.185 324.299 392.185 325.119 390.825 325.119C390.815 325.119 390.815 325.119 390.805 325.119H390.795C389.275 325.109 388.235 324.089 388.235 321.789C388.235 319.639 389.195 318.449 390.815 318.449C392.015 318.449 392.855 319.139 393.165 320.379H392.265C392.035 319.609 391.505 319.209 390.785 319.209C389.665 319.209 389.055 320.119 389.055 321.759C389.425 321.129 390.095 320.779 390.885 320.779C392.255 320.779 393.185 321.579 393.185 322.929ZM390.805 324.359C391.695 324.359 392.285 323.859 392.285 322.959C392.285 322.069 391.675 321.539 390.805 321.539C389.905 321.539 389.315 322.059 389.315 322.969C389.315 323.839 389.915 324.359 390.805 324.359Z" fill="#F2F2F2" fill-opacity="0.5"/>
<path d="M45.5035 309.119C43.9135 309.119 42.9935 307.879 42.9935 305.789C42.9935 303.639 43.9335 302.449 45.5035 302.449C47.0835 302.449 48.0035 303.689 48.0035 305.789C48.0035 307.939 47.0635 309.119 45.5035 309.119ZM45.5035 308.359C46.5335 308.359 47.1035 307.439 47.1035 305.789C47.1035 304.149 46.5235 303.209 45.5035 303.209C44.4635 303.209 43.8935 304.119 43.8935 305.789C43.8935 307.409 44.4735 308.359 45.5035 308.359Z" fill="#F2F2F2" fill-opacity="0.5"/>
<rect x="67.8831" y="361.209" width="7.0459" height="7.0459" fill="#4375FB"/>
<path d="M222.077 363.135C222.077 364.925 226.197 363.515 226.197 366.295C226.197 367.635 225.107 368.385 223.617 368.385C222.107 368.385 221.067 367.695 220.787 366.275H221.957C222.147 367.045 222.717 367.465 223.627 367.465C224.557 367.465 225.047 367.055 225.047 366.445C225.047 364.525 220.927 365.955 220.927 363.225C220.927 362.205 221.787 361.325 223.337 361.325C224.677 361.325 225.777 361.965 226.017 363.455H224.827C224.637 362.615 224.107 362.245 223.307 362.245C222.527 362.245 222.077 362.595 222.077 363.135ZM231.53 362.865C231.53 363.855 230.82 364.225 230.06 364.545L231.7 366.135C231.87 365.735 231.97 365.255 231.97 364.705H233.02C233.02 365.475 232.82 366.225 232.44 366.845L233.91 368.255H232.5L231.81 367.595C231.25 368.085 230.51 368.385 229.6 368.385C228.06 368.385 227.13 367.515 227.13 366.355C227.13 365.285 227.77 364.765 228.5 364.405C228.02 363.855 227.84 363.455 227.84 362.925C227.84 361.965 228.63 361.325 229.74 361.325C230.92 361.325 231.53 362.065 231.53 362.865ZM228.89 362.925C228.89 363.295 229.07 363.565 229.48 363.975C230.05 363.725 230.5 363.455 230.5 362.935C230.5 362.565 230.21 362.205 229.73 362.205C229.22 362.205 228.89 362.535 228.89 362.925ZM228.22 366.305C228.22 366.985 228.72 367.485 229.68 367.485C230.24 367.485 230.74 367.305 231.13 366.955L229.32 365.245C229.23 365.155 229.14 365.075 229.06 364.995C228.58 365.265 228.22 365.635 228.22 366.305ZM234.78 368.255V361.455H237.2C238.79 361.455 239.77 362.285 239.77 363.645C239.77 365.035 238.77 365.845 237.22 365.845H235.9V368.255H234.78ZM237.19 362.355H235.9V364.945H237.16C238.1 364.945 238.62 364.445 238.62 363.655C238.62 362.865 238.09 362.355 237.19 362.355ZM247.507 366.105C247.507 367.425 246.667 368.385 245.087 368.385C243.637 368.385 242.747 367.645 242.567 366.415H243.637C243.747 367.075 244.217 367.485 245.077 367.485C245.977 367.485 246.437 366.975 246.437 366.125C246.437 365.415 246.097 364.715 245.067 364.715C244.387 364.715 243.997 365.015 243.777 365.345L242.817 365.255L243.017 361.825H247.197V362.665H243.877L243.777 364.255C244.137 363.995 244.567 363.825 245.157 363.825C246.847 363.825 247.507 364.885 247.507 366.105ZM250.758 368.385C249.148 368.385 248.218 367.145 248.218 365.045C248.218 362.895 249.168 361.695 250.758 361.695C252.358 361.695 253.288 362.935 253.288 365.045C253.288 367.195 252.338 368.385 250.758 368.385ZM250.758 367.475C251.688 367.475 252.198 366.615 252.198 365.045C252.198 363.485 251.678 362.605 250.758 362.605C249.828 362.605 249.308 363.465 249.308 365.045C249.308 366.585 249.828 367.475 250.758 367.475ZM256.52 368.385C254.91 368.385 253.98 367.145 253.98 365.045C253.98 362.895 254.93 361.695 256.52 361.695C258.12 361.695 259.05 362.935 259.05 365.045C259.05 367.195 258.1 368.385 256.52 368.385ZM256.52 367.475C257.45 367.475 257.96 366.615 257.96 365.045C257.96 363.485 257.44 362.605 256.52 362.605C255.59 362.605 255.07 363.465 255.07 365.045C255.07 366.585 255.59 367.475 256.52 367.475ZM262.095 368.255V361.455H263.215V368.255H262.095ZM264.593 368.255V362.925H265.663V363.635C266.023 363.065 266.583 362.785 267.273 362.785C268.383 362.785 269.073 363.435 269.073 364.695V368.255H268.013V364.915C268.013 364.145 267.673 363.675 266.943 363.675C266.143 363.675 265.663 364.385 265.663 365.125V368.255H264.593ZM272.374 368.385C270.964 368.385 270.114 367.335 270.114 365.595C270.114 363.785 270.984 362.785 272.374 362.785C272.984 362.785 273.484 363.035 273.824 363.525V361.055H274.894V368.255H273.824V367.605C273.484 368.105 272.984 368.385 272.374 368.385ZM272.514 367.485C273.364 367.485 273.824 366.825 273.824 365.595C273.824 364.375 273.344 363.685 272.514 363.685C271.664 363.685 271.204 364.365 271.204 365.595C271.204 366.805 271.684 367.485 272.514 367.485ZM280.915 366.515C280.625 367.755 279.705 368.385 278.455 368.385C276.885 368.385 275.925 367.335 275.925 365.595C275.925 363.785 276.885 362.785 278.405 362.785C279.945 362.785 280.875 363.825 280.875 365.535V365.795H277.015C277.075 366.885 277.585 367.495 278.455 367.495C279.135 367.495 279.615 367.175 279.795 366.515H280.915ZM278.405 363.675C277.635 363.675 277.175 364.165 277.045 365.065H279.765C279.635 364.165 279.165 363.675 278.405 363.675ZM285.121 368.255L283.981 366.615L283.721 366.165L283.461 366.615L282.351 368.255H281.171L283.141 365.485L281.321 362.925H282.611L283.601 364.365L283.861 364.825L284.121 364.365L285.091 362.925H286.261L284.441 365.485L286.411 368.255H285.121Z" fill="white"/>
<rect x="205.646" y="361.209" width="7.0459" height="7.0459" fill="#464EC7"/>
</svg>
