<svg width="287" height="49" viewBox="0 0 287 49" fill="none" xmlns="http://www.w3.org/2000/svg">
<path d="M5.3125 29.1133V24.5039H12.2266C13.9193 24.5039 15.2344 24.0742 16.1719 23.2148C17.1224 22.3424 17.5977 21.1055 17.5977 19.5039V19.4648C17.5977 17.8633 17.1224 16.6328 16.1719 15.7734C15.2344 14.9141 13.9193 14.4844 12.2266 14.4844H5.3125V9.81641H13.6719C15.651 9.81641 17.3828 10.2201 18.8672 11.0273C20.3516 11.8216 21.5039 12.9414 22.3242 14.3867C23.1576 15.832 23.5742 17.5182 23.5742 19.4453V19.4844C23.5742 21.4245 23.1576 23.1172 22.3242 24.5625C21.5039 26.0078 20.3516 27.1276 18.8672 27.9219C17.3828 28.7161 15.651 29.1133 13.6719 29.1133H5.3125ZM2.34375 38V9.81641H8.24219V38H2.34375Z" fill="url(#paint0_linear_49_63)"/>
<path d="M24.8555 38V17.0625H30.5586V20.7148H30.6758C30.9883 19.4258 31.5547 18.4232 32.375 17.707C33.1953 16.9909 34.2174 16.6328 35.4414 16.6328C35.7539 16.6328 36.0534 16.6523 36.3398 16.6914C36.6263 16.7305 36.8737 16.7826 37.082 16.8477V21.8672C36.8477 21.776 36.5482 21.7044 36.1836 21.6523C35.819 21.5872 35.4284 21.5547 35.0117 21.5547C34.0742 21.5547 33.2734 21.737 32.6094 22.1016C31.9453 22.4661 31.4375 23 31.0859 23.7031C30.7344 24.4062 30.5586 25.2656 30.5586 26.2812V38H24.8555Z" fill="url(#paint1_linear_49_63)"/>
<path d="M39.9727 38V17.0625H45.6758V38H39.9727ZM42.8242 14.3672C41.9648 14.3672 41.2422 14.0742 40.6562 13.4883C40.0703 12.9023 39.7773 12.2057 39.7773 11.3984C39.7773 10.5781 40.0703 9.88151 40.6562 9.30859C41.2422 8.72266 41.9648 8.42969 42.8242 8.42969C43.6836 8.42969 44.4062 8.72266 44.9922 9.30859C45.5781 9.88151 45.8711 10.5781 45.8711 11.3984C45.8711 12.2057 45.5781 12.9023 44.9922 13.4883C44.4062 14.0742 43.6836 14.3672 42.8242 14.3672Z" fill="url(#paint2_linear_49_63)"/>
<path d="M55.3828 38L48.1367 17.0625H54.2305L58.6055 32.9609H58.7227L63.0391 17.0625H68.9961L61.8086 38H55.3828Z" fill="url(#paint3_linear_49_63)"/>
<path d="M76.0859 38.332C74.6927 38.332 73.4688 38.0651 72.4141 37.5312C71.3594 36.9844 70.5326 36.2357 69.9336 35.2852C69.3477 34.3216 69.0547 33.2279 69.0547 32.0039V31.9648C69.0547 30.6888 69.3737 29.6016 70.0117 28.7031C70.6497 27.7917 71.5742 27.0755 72.7852 26.5547C73.9961 26.0339 75.4674 25.7148 77.1992 25.5977L85.3633 25.0898V28.6445L78.0586 29.1133C76.9648 29.1784 76.1315 29.4388 75.5586 29.8945C74.9857 30.3372 74.6992 30.9297 74.6992 31.6719V31.7109C74.6992 32.4792 74.9922 33.0846 75.5781 33.5273C76.1641 33.957 76.9518 34.1719 77.9414 34.1719C78.7878 34.1719 79.543 34.0091 80.207 33.6836C80.8841 33.3451 81.4115 32.8893 81.7891 32.3164C82.1797 31.7305 82.375 31.0729 82.375 30.3438V23.9961C82.375 23.0716 82.082 22.3424 81.4961 21.8086C80.9102 21.2617 80.0573 20.9883 78.9375 20.9883C77.8698 20.9883 77.0234 21.2096 76.3984 21.6523C75.7734 22.0951 75.3893 22.6549 75.2461 23.332L75.207 23.5078H69.9922L70.0117 23.2734C70.1159 21.9844 70.5391 20.8385 71.2812 19.8359C72.0365 18.8333 73.0781 18.0521 74.4062 17.4922C75.7474 16.9193 77.3359 16.6328 79.1719 16.6328C80.9818 16.6328 82.5508 16.9258 83.8789 17.5117C85.207 18.0846 86.2357 18.8984 86.9648 19.9531C87.707 21.0078 88.0781 22.2383 88.0781 23.6445V38H82.375V34.875H82.2578C81.8672 35.5911 81.3594 36.2096 80.7344 36.7305C80.1224 37.2383 79.4258 37.6354 78.6445 37.9219C77.8633 38.1953 77.0104 38.332 76.0859 38.332Z" fill="url(#paint4_linear_49_63)"/>
<path d="M100.176 38.4297C97.8581 38.4297 96.1393 37.9414 95.0195 36.9648C93.8997 35.9883 93.3398 34.3802 93.3398 32.1406V21.3594H90.4297V17.0625H93.3398V11.9453H99.1016V17.0625H102.93V21.3594H99.1016V31.5156C99.1016 32.4922 99.3164 33.1758 99.7461 33.5664C100.189 33.944 100.84 34.1328 101.699 34.1328C101.96 34.1328 102.188 34.1263 102.383 34.1133C102.578 34.0872 102.76 34.0612 102.93 34.0352V38.2148C102.617 38.2669 102.227 38.3125 101.758 38.3516C101.302 38.4036 100.775 38.4297 100.176 38.4297Z" fill="url(#paint5_linear_49_63)"/>
<path d="M116.387 39.4297C114.251 39.4297 112.415 38.9935 110.879 38.1211C109.342 37.2357 108.158 35.9792 107.324 34.3516C106.504 32.724 106.094 30.7969 106.094 28.5703V28.5508C106.094 26.3242 106.504 24.3971 107.324 22.7695C108.158 21.1289 109.323 19.8659 110.82 18.9805C112.331 18.082 114.108 17.6328 116.152 17.6328C118.197 17.6328 119.961 18.069 121.445 18.9414C122.943 19.8008 124.095 21.0182 124.902 22.5938C125.723 24.1693 126.133 26.0117 126.133 28.1211V29.8789H108.887V26.2852H123.438L120.723 29.6445V27.457C120.723 26.2331 120.534 25.2109 120.156 24.3906C119.779 23.5573 119.251 22.9323 118.574 22.5156C117.91 22.099 117.135 21.8906 116.25 21.8906C115.365 21.8906 114.577 22.1055 113.887 22.5352C113.21 22.9648 112.676 23.5964 112.285 24.4297C111.908 25.25 111.719 26.2591 111.719 27.457V29.6641C111.719 30.8229 111.908 31.8125 112.285 32.6328C112.676 33.4531 113.229 34.0846 113.945 34.5273C114.661 34.957 115.514 35.1719 116.504 35.1719C117.285 35.1719 117.962 35.0482 118.535 34.8008C119.108 34.5534 119.577 34.2409 119.941 33.8633C120.306 33.4857 120.553 33.1016 120.684 32.7109L120.723 32.5938H125.957L125.898 32.8086C125.742 33.5768 125.436 34.3516 124.98 35.1328C124.525 35.9141 123.906 36.6302 123.125 37.2812C122.357 37.9323 121.413 38.4531 120.293 38.8438C119.186 39.2344 117.884 39.4297 116.387 39.4297Z" fill="url(#paint6_linear_49_63)"/>
<path d="M137.344 38V9.81641H144.16L152.168 30.0703H152.285L160.293 9.81641H167.109V38H161.855V18.9375H159.121L165.02 10.5977L154.082 38H150.371L139.434 10.5977L145.332 18.9375H142.598V38H137.344Z" fill="url(#paint7_linear_49_63)"/>
<path d="M177.086 39.332C175.693 39.332 174.469 39.0651 173.414 38.5312C172.359 37.9844 171.533 37.2357 170.934 36.2852C170.348 35.3216 170.055 34.2279 170.055 33.0039V32.9648C170.055 31.6888 170.374 30.6016 171.012 29.7031C171.65 28.7917 172.574 28.0755 173.785 27.5547C174.996 27.0339 176.467 26.7148 178.199 26.5977L186.363 26.0898V29.6445L179.059 30.1133C177.965 30.1784 177.132 30.4388 176.559 30.8945C175.986 31.3372 175.699 31.9297 175.699 32.6719V32.7109C175.699 33.4792 175.992 34.0846 176.578 34.5273C177.164 34.957 177.952 35.1719 178.941 35.1719C179.788 35.1719 180.543 35.0091 181.207 34.6836C181.884 34.3451 182.411 33.8893 182.789 33.3164C183.18 32.7305 183.375 32.0729 183.375 31.3438V24.9961C183.375 24.0716 183.082 23.3424 182.496 22.8086C181.91 22.2617 181.057 21.9883 179.938 21.9883C178.87 21.9883 178.023 22.2096 177.398 22.6523C176.773 23.0951 176.389 23.6549 176.246 24.332L176.207 24.5078H170.992L171.012 24.2734C171.116 22.9844 171.539 21.8385 172.281 20.8359C173.036 19.8333 174.078 19.0521 175.406 18.4922C176.747 17.9193 178.336 17.6328 180.172 17.6328C181.982 17.6328 183.551 17.9258 184.879 18.5117C186.207 19.0846 187.236 19.8984 187.965 20.9531C188.707 22.0078 189.078 23.2383 189.078 24.6445V39H183.375V35.875H183.258C182.867 36.5911 182.359 37.2096 181.734 37.7305C181.122 38.2383 180.426 38.6354 179.645 38.9219C178.863 39.1953 178.01 39.332 177.086 39.332Z" fill="url(#paint8_linear_49_63)"/>
<path d="M193.855 39V18.0625H199.559V21.7148H199.676C199.988 20.4258 200.555 19.4232 201.375 18.707C202.195 17.9909 203.217 17.6328 204.441 17.6328C204.754 17.6328 205.053 17.6523 205.34 17.6914C205.626 17.7305 205.874 17.7826 206.082 17.8477V22.8672C205.848 22.776 205.548 22.7044 205.184 22.6523C204.819 22.5872 204.428 22.5547 204.012 22.5547C203.074 22.5547 202.273 22.737 201.609 23.1016C200.945 23.4661 200.438 24 200.086 24.7031C199.734 25.4062 199.559 26.2656 199.559 27.2812V39H193.855Z" fill="url(#paint9_linear_49_63)"/>
<path d="M209.051 39V10.8164H214.754V39H209.051ZM222.215 39L215.75 29.7422L219.363 25.4062L228.797 39H222.215ZM214.051 32.8281V26.4414H214.871L221.941 18.0625H228.406L218.738 29.0586H217.469L214.051 32.8281Z" fill="url(#paint10_linear_49_63)"/>
<path d="M240.387 39.4297C238.251 39.4297 236.415 38.9935 234.879 38.1211C233.342 37.2357 232.158 35.9792 231.324 34.3516C230.504 32.724 230.094 30.7969 230.094 28.5703V28.5508C230.094 26.3242 230.504 24.3971 231.324 22.7695C232.158 21.1289 233.323 19.8659 234.82 18.9805C236.331 18.082 238.108 17.6328 240.152 17.6328C242.197 17.6328 243.961 18.069 245.445 18.9414C246.943 19.8008 248.095 21.0182 248.902 22.5938C249.723 24.1693 250.133 26.0117 250.133 28.1211V29.8789H232.887V26.2852H247.438L244.723 29.6445V27.457C244.723 26.2331 244.534 25.2109 244.156 24.3906C243.779 23.5573 243.251 22.9323 242.574 22.5156C241.91 22.099 241.135 21.8906 240.25 21.8906C239.365 21.8906 238.577 22.1055 237.887 22.5352C237.21 22.9648 236.676 23.5964 236.285 24.4297C235.908 25.25 235.719 26.2591 235.719 27.457V29.6641C235.719 30.8229 235.908 31.8125 236.285 32.6328C236.676 33.4531 237.229 34.0846 237.945 34.5273C238.661 34.957 239.514 35.1719 240.504 35.1719C241.285 35.1719 241.962 35.0482 242.535 34.8008C243.108 34.5534 243.577 34.2409 243.941 33.8633C244.306 33.4857 244.553 33.1016 244.684 32.7109L244.723 32.5938H249.957L249.898 32.8086C249.742 33.5768 249.436 34.3516 248.98 35.1328C248.525 35.9141 247.906 36.6302 247.125 37.2812C246.357 37.9323 245.413 38.4531 244.293 38.8438C243.186 39.2344 241.884 39.4297 240.387 39.4297Z" fill="url(#paint11_linear_49_63)"/>
<path d="M261.176 39.4297C258.858 39.4297 257.139 38.9414 256.02 37.9648C254.9 36.9883 254.34 35.3802 254.34 33.1406V22.3594H251.43V18.0625H254.34V12.9453H260.102V18.0625H263.93V22.3594H260.102V32.5156C260.102 33.4922 260.316 34.1758 260.746 34.5664C261.189 34.944 261.84 35.1328 262.699 35.1328C262.96 35.1328 263.188 35.1263 263.383 35.1133C263.578 35.0872 263.76 35.0612 263.93 35.0352V39.2148C263.617 39.2669 263.227 39.3125 262.758 39.3516C262.302 39.4036 261.775 39.4297 261.176 39.4297Z" fill="url(#paint12_linear_49_63)"/>
<path d="M276.469 39.4297C274.542 39.4297 272.901 39.1497 271.547 38.5898C270.193 38.0299 269.132 37.2552 268.363 36.2656C267.608 35.263 267.152 34.1042 266.996 32.7891L266.977 32.6133H272.543L272.582 32.7891C272.764 33.6094 273.174 34.2474 273.812 34.7031C274.451 35.1589 275.336 35.3867 276.469 35.3867C277.198 35.3867 277.816 35.3021 278.324 35.1328C278.832 34.9505 279.223 34.6966 279.496 34.3711C279.783 34.0456 279.926 33.6549 279.926 33.1992V33.1797C279.926 32.6198 279.724 32.1706 279.32 31.832C278.917 31.4935 278.201 31.207 277.172 30.9727L273.617 30.2305C272.263 29.944 271.13 29.5339 270.219 29C269.32 28.4531 268.643 27.7826 268.188 26.9883C267.732 26.181 267.504 25.2565 267.504 24.2148V24.1953C267.504 22.8542 267.862 21.6953 268.578 20.7188C269.294 19.7422 270.31 18.987 271.625 18.4531C272.953 17.9062 274.503 17.6328 276.273 17.6328C278.122 17.6328 279.691 17.9323 280.98 18.5312C282.283 19.1172 283.279 19.9115 283.969 20.9141C284.672 21.9167 285.043 23.0299 285.082 24.2539V24.4492H279.828L279.809 24.293C279.717 23.5378 279.366 22.9128 278.754 22.418C278.155 21.9102 277.328 21.6562 276.273 21.6562C275.622 21.6562 275.056 21.7474 274.574 21.9297C274.092 22.112 273.721 22.3724 273.461 22.7109C273.201 23.0365 273.07 23.4271 273.07 23.8828V23.9023C273.07 24.2539 273.155 24.5729 273.324 24.8594C273.507 25.1328 273.806 25.3737 274.223 25.582C274.639 25.7904 275.199 25.9727 275.902 26.1289L279.457 26.8906C281.658 27.3464 283.233 28.0299 284.184 28.9414C285.147 29.8529 285.629 31.0768 285.629 32.6133V32.6328C285.629 34 285.238 35.1914 284.457 36.207C283.676 37.2227 282.595 38.0169 281.215 38.5898C279.848 39.1497 278.266 39.4297 276.469 39.4297Z" fill="url(#paint13_linear_49_63)"/>
<defs>
<linearGradient id="paint0_linear_49_63" x1="12.0427" y1="90.3674" x2="14.7952" y2="-17.0729" gradientUnits="userSpaceOnUse">
<stop offset="0.445" stop-color="#D5D5D5"/>
<stop offset="0.885" stop-color="#6D1DEF"/>
<stop offset="1" stop-color="#965BF5"/>
</linearGradient>
<linearGradient id="paint1_linear_49_63" x1="30.2256" y1="90.3674" x2="34.8078" y2="-16.9478" gradientUnits="userSpaceOnUse">
<stop offset="0.445" stop-color="#D5D5D5"/>
<stop offset="0.885" stop-color="#6D1DEF"/>
<stop offset="1" stop-color="#965BF5"/>
</linearGradient>
<linearGradient id="paint2_linear_49_63" x1="42.8171" y1="90.3674" x2="49.6748" y2="-16.7042" gradientUnits="userSpaceOnUse">
<stop offset="0.445" stop-color="#D5D5D5"/>
<stop offset="0.885" stop-color="#6D1DEF"/>
<stop offset="1" stop-color="#965BF5"/>
</linearGradient>
<linearGradient id="paint3_linear_49_63" x1="58.5976" y1="90.3674" x2="61.7248" y2="-17.0524" gradientUnits="userSpaceOnUse">
<stop offset="0.445" stop-color="#D5D5D5"/>
<stop offset="0.885" stop-color="#6D1DEF"/>
<stop offset="1" stop-color="#965BF5"/>
</linearGradient>
<linearGradient id="paint4_linear_49_63" x1="78.5976" y1="90.3674" x2="81.7248" y2="-17.0524" gradientUnits="userSpaceOnUse">
<stop offset="0.445" stop-color="#D5D5D5"/>
<stop offset="0.885" stop-color="#6D1DEF"/>
<stop offset="1" stop-color="#965BF5"/>
</linearGradient>
<linearGradient id="paint5_linear_49_63" x1="97.2256" y1="90.3674" x2="101.808" y2="-16.9478" gradientUnits="userSpaceOnUse">
<stop offset="0.445" stop-color="#D5D5D5"/>
<stop offset="0.885" stop-color="#6D1DEF"/>
<stop offset="1" stop-color="#965BF5"/>
</linearGradient>
<linearGradient id="paint6_linear_49_63" x1="116.079" y1="91.3674" x2="119.071" y2="-16.0601" gradientUnits="userSpaceOnUse">
<stop offset="0.445" stop-color="#D5D5D5"/>
<stop offset="0.885" stop-color="#6D1DEF"/>
<stop offset="1" stop-color="#965BF5"/>
</linearGradient>
<linearGradient id="paint7_linear_49_63" x1="151.86" y1="90.3674" x2="153.826" y2="-17.1074" gradientUnits="userSpaceOnUse">
<stop offset="0.445" stop-color="#D5D5D5"/>
<stop offset="0.885" stop-color="#6D1DEF"/>
<stop offset="1" stop-color="#965BF5"/>
</linearGradient>
<linearGradient id="paint8_linear_49_63" x1="179.598" y1="91.3674" x2="182.725" y2="-16.0524" gradientUnits="userSpaceOnUse">
<stop offset="0.445" stop-color="#D5D5D5"/>
<stop offset="0.885" stop-color="#6D1DEF"/>
<stop offset="1" stop-color="#965BF5"/>
</linearGradient>
<linearGradient id="paint9_linear_49_63" x1="199.226" y1="91.3674" x2="203.808" y2="-15.9478" gradientUnits="userSpaceOnUse">
<stop offset="0.445" stop-color="#D5D5D5"/>
<stop offset="0.885" stop-color="#6D1DEF"/>
<stop offset="1" stop-color="#965BF5"/>
</linearGradient>
<linearGradient id="paint10_linear_49_63" x1="217.598" y1="91.3674" x2="220.725" y2="-16.0524" gradientUnits="userSpaceOnUse">
<stop offset="0.445" stop-color="#D5D5D5"/>
<stop offset="0.885" stop-color="#6D1DEF"/>
<stop offset="1" stop-color="#965BF5"/>
</linearGradient>
<linearGradient id="paint11_linear_49_63" x1="240.079" y1="91.3674" x2="243.071" y2="-16.0601" gradientUnits="userSpaceOnUse">
<stop offset="0.445" stop-color="#D5D5D5"/>
<stop offset="0.885" stop-color="#6D1DEF"/>
<stop offset="1" stop-color="#965BF5"/>
</linearGradient>
<linearGradient id="paint12_linear_49_63" x1="258.226" y1="91.3674" x2="262.808" y2="-15.9478" gradientUnits="userSpaceOnUse">
<stop offset="0.445" stop-color="#D5D5D5"/>
<stop offset="0.885" stop-color="#6D1DEF"/>
<stop offset="1" stop-color="#965BF5"/>
</linearGradient>
<linearGradient id="paint13_linear_49_63" x1="276.116" y1="91.3674" x2="279.392" y2="-16.0435" gradientUnits="userSpaceOnUse">
<stop offset="0.445" stop-color="#D5D5D5"/>
<stop offset="0.885" stop-color="#6D1DEF"/>
<stop offset="1" stop-color="#965BF5"/>
</linearGradient>
</defs>
</svg>
